<?xml version="1.0" encoding="UTF-8"?>
<svg width="180px" height="60px" viewBox="0 0 180 60" version="1.1" xmlns="http://www.w3.org/2000/svg">
  <g fill="none" fill-rule="evenodd">
    <g transform="translate(4, 4)">
      <path d="M30,0 C37.732,0 44,16.641 44,30 C44,43.359 37.732,52 30,52 C22.268,52 16,43.359 16,30 C16,16.641 22.268,0 30,0 Z" fill="#4F46E5" />
      <path d="M30,6 C34.052,6 38.018,8.272 41.13,12.024 C42.562,13.739 43.8,15.794 44.772,18.055 C45.744,20.317 46.451,22.785 46.865,25.349 C46.954,25.901 47.032,26.458 47.096,27.017 C47.146,27.437 47.19,27.859 47.227,28.283 C47.284,28.927 47.32,29.549 47.344,30.151 L47.344,30.151 L46.865,34.653 C46.451,37.217 45.744,39.687 44.772,41.948 C43.8,44.208 42.562,46.262 41.13,47.976 C38.018,51.728 34.052,54 30,54 C25.948,54 21.982,51.728 18.87,47.976 C17.438,46.262 16.2,44.208 15.228,41.948 C14.256,39.687 13.549,37.217 13.135,34.653 L13.135,34.653 L12.656,30.151 C12.68,29.549 12.716,28.927 12.773,28.283 C12.811,27.859 12.854,27.437 12.904,27.017 C12.968,26.458 13.046,25.901 13.135,25.349 C13.549,22.785 14.256,20.317 15.228,18.055 C16.2,15.794 17.438,13.739 18.87,12.024 C21.982,8.272 25.948,6 30,6 Z" stroke="#FFFFFF" stroke-width="2.5" />
      <path d="M25.172,29.2068966 L34.827,29.2068966 L37.465,40.5172414 C37.623,41.137931 37.195,41.7586207 36.574,41.7586207 L23.425,41.7586207 C22.804,41.7586207 22.376,41.137931 22.534,40.5172414 L25.172,29.2068966 Z" fill="#FFFFFF" />
      <rect fill="#FFFFFF" x="24" y="20.6896552" width="12" height="1.24137931" rx="0.620689655" />
      <rect fill="#FFFFFF" x="24" y="24.4137931" width="12" height="1.24137931" rx="0.620689655" />
      <rect fill="#FFFFFF" x="21" y="17.5862069" width="18" height="1.24137931" rx="0.620689655" />
    </g>
    <text font-family="Arial-BoldMT, Arial" font-size="16" font-weight="bold" fill="#4F46E5">
      <tspan x="63" y="26">Campus</tspan>
      <tspan x="63" y="44">Closet</tspan>
    </text>
  </g>
</svg>